<?xml version="1.0" standalone="no"?>
<!DOCTYPE svg PUBLIC "-//W3C//DTD SVG 20010904//EN"
 "http://www.w3.org/TR/2001/REC-SVG-20010904/DTD/svg10.dtd">
<svg version="1.0" xmlns="http://www.w3.org/2000/svg"
 width="180.000000pt" height="180.000000pt" viewBox="0 0 180.000000 180.000000"
 preserveAspectRatio="xMidYMid meet">
<metadata>
Created by potrace 1.14, written by Peter Selinger 2001-2017
</metadata>
<g transform="translate(0.000000,180.000000) scale(0.100000,-0.100000)"
fill="#000000" stroke="none">
<path d="M864 1759 c-27 -15 -71 -40 -99 -54 -27 -15 -56 -32 -63 -37 -14 -12
-84 -52 -122 -71 -14 -6 -27 -14 -30 -18 -3 -4 -30 -19 -60 -35 -30 -15 -57
-31 -60 -34 -3 -3 -27 -19 -55 -34 -27 -16 -70 -40 -95 -54 -25 -14 -48 -30
-52 -36 -4 -6 -8 -8 -8 -4 0 4 -19 -4 -43 -17 l-42 -24 -1 -446 c-1 -468 -1
-475 42 -475 8 0 14 -4 14 -10 0 -5 4 -10 9 -10 5 0 74 -38 155 -85 80 -47
150 -85 156 -85 5 0 10 -4 10 -9 0 -5 8 -11 18 -14 16 -6 67 -35 137 -79 17
-10 42 -24 58 -30 15 -7 27 -16 27 -20 0 -4 4 -8 9 -8 6 0 37 -16 70 -35 32
-19 65 -35 71 -35 6 0 42 17 78 39 37 21 83 48 103 59 76 42 84 47 89 53 3 3
19 12 35 21 65 33 100 53 103 61 2 4 9 7 17 7 7 0 18 7 25 15 7 8 16 13 20 10
5 -3 10 -1 12 4 1 4 26 20 53 35 28 15 68 38 90 51 22 14 51 31 65 38 14 6 27
14 30 17 3 3 14 10 24 16 18 10 19 27 18 440 0 236 -1 441 -1 456 -1 26 -24
46 -73 64 -10 3 -18 11 -18 16 0 5 -4 6 -10 3 -5 -3 -10 -2 -10 3 0 5 -8 12
-17 16 -10 3 -25 10 -33 15 -76 47 -153 91 -161 91 -5 0 -9 5 -9 11 0 5 -4 8
-9 4 -5 -3 -16 2 -24 10 -9 8 -20 15 -26 15 -6 0 -11 5 -11 11 0 5 -4 7 -10 4
-5 -3 -10 -3 -10 2 0 4 -23 19 -50 32 -28 14 -50 29 -50 33 0 4 -5 8 -11 8 -6
0 -60 29 -119 64 l-107 63 -49 -28z"/>
</g>
</svg>
